<svg version="1.1" class="highcharts-root" style="font-family:&quot;Lucida Grande&quot;, &quot;Lucida Sans Unicode&quot;, Arial, Helvetica, sans-serif;font-size:12px;"
  xmlns="http://www.w3.org/2000/svg" width="970" height="450" viewBox="0 0 970 450">
  <desc></desc>
  <defs>
    <clippath id="highcharts-v57xvtb-1">
      <rect x="0" y="0" width="914" height="366" fill="none"></rect>
    </clippath>
  </defs>
  <rect fill="none" class="highcharts-background" x="0" y="0" width="970" height="450" rx="0"
    ry="0"></rect>
  <rect fill="none" class="highcharts-plot-background" x="46" y="10" width="914" height="366">
  </rect>
  <g class="highcharts-grid highcharts-xaxis-grid " data-z-index="1">
    <path fill="none" data-z-index="1" class="highcharts-grid-line" d="M 54.5 10 L 54.5 376"
      opacity="1"></path>
    <path fill="none" data-z-index="1" class="highcharts-grid-line" d="M 170.5 10 L 170.5 376"
      opacity="1"></path>
    <path fill="none" data-z-index="1" class="highcharts-grid-line" d="M 287.5 10 L 287.5 376"
      opacity="1"></path>
    <path fill="none" data-z-index="1" class="highcharts-grid-line" d="M 403.5 10 L 403.5 376"
      opacity="1"></path>
    <path fill="none" data-z-index="1" class="highcharts-grid-line" d="M 519.5 10 L 519.5 376"
      opacity="1"></path>
    <path fill="none" data-z-index="1" class="highcharts-grid-line" d="M 636.5 10 L 636.5 376"
      opacity="1"></path>
    <path fill="none" data-z-index="1" class="highcharts-grid-line" d="M 752.5 10 L 752.5 376"
      opacity="1"></path>
    <path fill="none" data-z-index="1" class="highcharts-grid-line" d="M 869.5 10 L 869.5 376"
      opacity="1"></path>
  </g>
  <g class="highcharts-grid highcharts-yaxis-grid " data-z-index="1">
    <path fill="none" stroke="#d1d1d1" stroke-width="1" data-z-index="1"
      class="highcharts-grid-line" d="M 46 376.5 L 960 376.5" opacity="1">
    </path>
    <path fill="none" stroke="#d1d1d1" stroke-width="1" data-z-index="1"
      class="highcharts-grid-line" d="M 46 303.5 L 960 303.5" opacity="1">
    </path>
    <path fill="none" stroke="#d1d1d1" stroke-width="1" data-z-index="1"
      class="highcharts-grid-line" d="M 46 230.5 L 960 230.5" opacity="1">
    </path>
    <path fill="none" stroke="#d1d1d1" stroke-width="1" data-z-index="1"
      class="highcharts-grid-line" d="M 46 156.5 L 960 156.5" opacity="1">
    </path>
    <path fill="none" stroke="#d1d1d1" stroke-width="1" data-z-index="1"
      class="highcharts-grid-line" d="M 46 83.5 L 960 83.5" opacity="1">
    </path>
    <path fill="none" stroke="#d1d1d1" stroke-width="1" data-z-index="1"
      class="highcharts-grid-line" d="M 46 9.5 L 960 9.5" opacity="1">
    </path>
  </g>
  <rect fill="none" class="highcharts-plot-border" data-z-index="1" x="46" y="10" width="914"
    height="366"></rect>
  <g class="highcharts-axis highcharts-xaxis " data-z-index="2">
    <path fill="none" class="highcharts-tick" stroke="#ccd6eb" stroke-width="1"
      d="M 54.5 376 L 54.5 386" opacity="1"></path>
    <path fill="none" class="highcharts-tick" stroke="#ccd6eb" stroke-width="1"
      d="M 170.5 376 L 170.5 386" opacity="1"></path>
    <path fill="none" class="highcharts-tick" stroke="#ccd6eb" stroke-width="1"
      d="M 287.5 376 L 287.5 386" opacity="1"></path>
    <path fill="none" class="highcharts-tick" stroke="#ccd6eb" stroke-width="1"
      d="M 403.5 376 L 403.5 386" opacity="1"></path>
    <path fill="none" class="highcharts-tick" stroke="#ccd6eb" stroke-width="1"
      d="M 519.5 376 L 519.5 386" opacity="1"></path>
    <path fill="none" class="highcharts-tick" stroke="#ccd6eb" stroke-width="1"
      d="M 636.5 376 L 636.5 386" opacity="1"></path>
    <path fill="none" class="highcharts-tick" stroke="#ccd6eb" stroke-width="1"
      d="M 752.5 376 L 752.5 386" opacity="1"></path>
    <path fill="none" class="highcharts-tick" stroke="#ccd6eb" stroke-width="1"
      d="M 869.5 376 L 869.5 386" opacity="1"></path>
    <path fill="none" class="highcharts-axis-line" stroke="#ccd6eb" stroke-width="1"
      data-z-index="7" d="M 46 376.5 L 960 376.5"></path>
  </g>
  <g class="highcharts-axis highcharts-yaxis " data-z-index="2">
    <path fill="none" class="highcharts-axis-line" data-z-index="7" d="M 46 10 L 46 376"></path>
  </g>
  <g class="highcharts-series-group" data-z-index="3">
    <g data-z-index="0.1"
      class="highcharts-series highcharts-series-0 highcharts-areaspline-series highcharts-color-0 "
      transform="translate(46,10) scale(1 1)" clip-path="url(#highcharts-v57xvtb-1)">
      <path fill="rgba(0,70,158,0.75)"
        d="M 67.147695441813 366 C 67.147695441813 366 67.147695441813 365.95608 67.147695441813 365.95608 C 67.147695441813 365.95608 74.1301247771838 365.95608 78.785077667431 365.91948 C 83.4400305576778 365.88288000000006 85.7675070028012 365.910696 90.422459893048 365.76576 C 95.07741278329681 365.62082399999997 97.4048892284212 365.49199200000015 102.05984211867 365.1948 C 106.71479500891401 364.89760800000016 109.042271454036 364.6589759999998 113.69722434428 364.2798 C 118.352177234528 363.9006239999999 120.679653679652 363.89184 125.3346065699 363.29892 C 129.98955946014797 362.706 132.317035905272 362.246304 136.97198879552 361.3152 C 141.626941685768 360.384096 143.954418130892 359.8087440000005 148.60937102114 358.6434 C 153.264323911384 357.4780560000005 155.59180035650598 357.0373919999993 160.24675324675 355.48848 C 164.90170613699797 353.9395679999993 167.22918258212198 353.27198400000003 171.88413547237 350.89884 C 176.53908836261797 348.52569600000004 178.866564807742 347.36328 183.52151769799 343.62275999999997 C 188.176470588238 339.88223999999997 190.503947033362 337.1548080000021 195.15889992361 332.19624 C 199.813852813854 327.23767200000214 202.141329258976 326.44857599999676 206.79628214922 318.82992 C 211.45123503946797 311.2112639999968 213.77871148459198 307.31409600000006 218.43366437484 294.10296 C 223.08861726508798 280.89182400000004 225.416093710212 268.31020799999993 230.07104660046 252.77424 C 234.725999490708 237.23827199999994 237.053475935832 229.0984320000054 241.70842882608 216.42312 C 246.363381716324 203.74780800000545 248.690858161446 199.57687199999557 253.34581105169 189.39768 C 258.00076394193803 179.2184879999956 260.328240387062 173.334672 264.98319327731 165.52716 C 269.63814616755803 157.719648 271.965622612682 155.731536 276.62057550293 150.36012 C 281.27552839317804 144.98870399999998 283.603004838302 142.36375200000157 288.25795772855 138.67007999999998 C 292.912910618794 134.97640800000158 295.24038706391605 132.31632000000002 299.89533995416 131.89176 C 304.55029284440803 131.4672 306.877769289532 131.4672 311.53272217978 131.4672 C 316.18767507002804 131.4672 318.51515151515207 133.251816 323.1701044054 137.37444 C 327.825057295648 141.49706399999997 330.152533740772 146.38389599999755 334.80748663102 152.08032 C 339.462439521264 157.77674399999754 341.78991596638605 162.10579200000163 346.44486885663 165.85656 C 351.09982174687804 169.60732800000162 353.427298192002 170.83416 358.08225108225 170.83416 C 362.73720397249804 170.83416 365.064680417622 170.51208 369.71963330787 168.68207999999998 C 374.37458619811804 166.85208 376.702062643242 164.6751120000013 381.35701553349 161.68416 C 386.011968423734 158.6932080000013 388.33944486885605 153.72732 392.9943977591 153.72732 C 397.649350649348 153.72732 399.976827094472 153.72732 404.63177998472 153.9762 C 409.28673287496804 154.22508000000002 411.6142093200921 157.356576 416.26916221034 162.31368 C 420.924115100588 167.270784 423.251591545712 178.76172 427.90654443596 178.76172 C 432.56149732620395 178.76172 434.888973771326 177.71496 439.54392666157 177.71496 C 444.19887955181804 177.71496 446.526355996942 182.65595999999996 451.18130888719 184.27367999999998 C 455.836261777438 185.8914 458.163738222562 185.127192 462.81869111281 185.8914 C 467.473644003058 186.65560800000003 469.80112044818196 186.42429599999926 474.45607333843 188.09472 C 479.111026228674 189.76514399999928 481.43850267379605 194.24352 486.09345556404 194.24352 C 490.748408454288 194.24352 493.075884899412 193.38707999999997 497.73083778966 192.45744 C 502.3857906799079 191.52779999999998 504.71326712503196 190.54545599999997 509.36822001528 189.59532 C 514.023172905528 188.645184 516.350649350652 187.70676 521.0056022409 187.70676 C 525.6605551311441 187.70676 527.988031576266 188.58516 532.64298446651 188.58516 C 537.297937356758 188.58516 539.6254138018819 187.38468 544.28036669213 187.38468 C 548.935319582378 187.38468 551.262796027502 187.38468 555.91774891775 187.80192 C 560.5727018079981 188.21916 562.900178253122 190.4751839999988 567.55513114337 193.35048 C 572.210084033614 196.22577599999877 574.5375604787359 198.39835200000158 579.19251336898 202.1784 C 583.847466259228 205.9584480000016 586.174942704352 204.79456800000008 590.8298955946 212.25072 C 595.484848484848 219.7068720000001 597.8123249299721 230.298912 602.46727782022 239.45916 C 607.122230710468 248.619408 609.449707155592 251.88705599999736 614.10466004584 258.05196 C 618.759612936084 264.2168639999974 621.0870893812059 267.0745920000013 625.74204227145 270.28368 C 630.396995161698 273.4927680000013 632.724471606822 272.732952 637.37942449707 274.0974 C 642.034377387318 275.461848 644.361853832442 274.84257599999995 649.01680672269 277.10591999999997 C 653.671759612938 279.36926399999993 655.999236058062 284.98224000000005 660.65418894831 285.41412 C 665.3091418385541 285.846 667.6366182836761 285.6439680000001 672.29157117392 285.846 C 676.946524064168 286.0480320000001 679.2740005092921 286.239816 683.92895339954 286.42428 C 688.583906289788 286.60874400000006 690.9113827349121 286.42428 695.56633562516 286.76832 C 700.221288515408 287.11236 702.548764960532 288.21036000000004 707.20371785078 288.57636 C 711.8586707410241 288.94236 714.1861471861461 288.7930320000001 718.84110007639 288.94236 C 723.496052966638 289.09168800000003 725.8235294117619 289.16781599999996 730.47848230201 289.323 C 735.133435192258 289.47818399999994 737.460911637382 289.546992 742.11586452763 289.71828 C 746.7708174178781 289.889568 749.098293863002 289.99497599999995 753.75324675325 290.17944 C 758.408199643494 290.36390399999993 760.735676088616 290.26874400000014 765.39062897886 290.6406 C 770.045581869108 291.01245600000016 772.373058314232 291.480936 777.02801120448 292.03872 C 781.6829640947279 292.59650400000004 784.010440539852 292.72094400000003 788.6653934301 293.42952 C 793.3203463203479 294.138096 795.647822765472 294.7207679999996 800.30277565572 295.5816 C 804.957728545964 296.4424319999996 807.285204991086 295.5816 811.94015788133 297.73368 C 816.595110771578 299.88576 818.922587216702 328.57284 823.57754010695 328.57284 C 828.2324929971979 328.57284 830.5599694423221 328.57284 835.21492233257 328.57284 C 839.869875222818 328.57284 842.197351667942 329.2843439999998 846.85230455819 329.73672 C 851.5072574484341 330.18909599999984 853.8347338935561 330.5521680000001 858.4896867838 330.83472 C 863.1446396740481 331.1172720000001 865.4721161191721 331.02211199999994 870.12706900942 331.14948 C 874.7820218996679 331.27684800000003 877.1094983447922 331.14948 881.76445123504 331.47156 C 886.419404125288 331.79364000000004 888.746880570412 333.00290399999955 893.40183346066 334.02624 C 898.0567863509041 335.04957599999955 905.03921568627 336.58824 905.03921568627 336.58824 L 905.03921568627 366 C 905.03921568627 366 898.0567863509041 366 893.40183346066 366 C 888.746880570412 366 886.419404125288 366 881.76445123504 366 C 877.1094983447922 366 874.7820218996679 366 870.12706900942 366 C 865.4721161191721 366 863.1446396740481 366 858.4896867838 366 C 853.8347338935561 366 851.5072574484341 366 846.85230455819 366 C 842.197351667942 366 839.869875222818 366 835.21492233257 366 C 830.5599694423221 366 828.2324929971979 366 823.57754010695 366 C 818.922587216702 366 816.595110771578 366 811.94015788133 366 C 807.285204991086 366 804.957728545964 366 800.30277565572 366 C 795.647822765472 366 793.3203463203479 366 788.6653934301 366 C 784.010440539852 366 781.6829640947279 366 777.02801120448 366 C 772.373058314232 366 770.045581869108 366 765.39062897886 366 C 760.735676088616 366 758.408199643494 366 753.75324675325 366 C 749.098293863002 366 746.7708174178781 366 742.11586452763 366 C 737.460911637382 366 735.133435192258 366 730.47848230201 366 C 725.8235294117619 366 723.496052966638 366 718.84110007639 366 C 714.1861471861461 366 711.8586707410241 366 707.20371785078 366 C 702.548764960532 366 700.221288515408 366 695.56633562516 366 C 690.9113827349121 366 688.583906289788 366 683.92895339954 366 C 679.2740005092921 366 676.946524064168 366 672.29157117392 366 C 667.6366182836761 366 665.3091418385541 366 660.65418894831 366 C 655.999236058062 366 653.671759612938 366 649.01680672269 366 C 644.361853832442 366 642.034377387318 366 637.37942449707 366 C 632.724471606822 366 630.396995161698 366 625.74204227145 366 C 621.0870893812059 366 618.759612936084 366 614.10466004584 366 C 609.449707155592 366 607.122230710468 366 602.46727782022 366 C 597.8123249299721 366 595.484848484848 366 590.8298955946 366 C 586.174942704352 366 583.847466259228 366 579.19251336898 366 C 574.5375604787359 366 572.210084033614 366 567.55513114337 366 C 562.900178253122 366 560.5727018079981 366 555.91774891775 366 C 551.262796027502 366 548.935319582378 366 544.28036669213 366 C 539.6254138018819 366 537.297937356758 366 532.64298446651 366 C 527.988031576266 366 525.6605551311441 366 521.0056022409 366 C 516.350649350652 366 514.023172905528 366 509.36822001528 366 C 504.71326712503196 366 502.3857906799079 366 497.73083778966 366 C 493.075884899412 366 490.748408454288 366 486.09345556404 366 C 481.43850267379605 366 479.111026228674 366 474.45607333843 366 C 469.80112044818196 366 467.473644003058 366 462.81869111281 366 C 458.163738222562 366 455.836261777438 366 451.18130888719 366 C 446.526355996942 366 444.19887955181804 366 439.54392666157 366 C 434.888973771326 366 432.56149732620395 366 427.90654443596 366 C 423.251591545712 366 420.924115100588 366 416.26916221034 366 C 411.6142093200921 366 409.28673287496804 366 404.63177998472 366 C 399.976827094472 366 397.649350649348 366 392.9943977591 366 C 388.33944486885605 366 386.011968423734 366 381.35701553349 366 C 376.702062643242 366 374.37458619811804 366 369.71963330787 366 C 365.064680417622 366 362.73720397249804 366 358.08225108225 366 C 353.427298192002 366 351.09982174687804 366 346.44486885663 366 C 341.78991596638605 366 339.462439521264 366 334.80748663102 366 C 330.152533740772 366 327.825057295648 366 323.1701044054 366 C 318.51515151515207 366 316.18767507002804 366 311.53272217978 366 C 306.877769289532 366 304.55029284440803 366 299.89533995416 366 C 295.24038706391605 366 292.912910618794 366 288.25795772855 366 C 283.603004838302 366 281.27552839317804 366 276.62057550293 366 C 271.965622612682 366 269.63814616755803 366 264.98319327731 366 C 260.328240387062 366 258.00076394193803 366 253.34581105169 366 C 248.690858161446 366 246.363381716324 366 241.70842882608 366 C 237.053475935832 366 234.725999490708 366 230.07104660046 366 C 225.416093710212 366 223.08861726508798 366 218.43366437484 366 C 213.77871148459198 366 211.45123503946797 366 206.79628214922 366 C 202.141329258976 366 199.813852813854 366 195.15889992361 366 C 190.503947033362 366 188.176470588238 366 183.52151769799 366 C 178.866564807742 366 176.53908836261797 366 171.88413547237 366 C 167.22918258212198 366 164.90170613699797 366 160.24675324675 366 C 155.59180035650598 366 153.264323911384 366 148.60937102114 366 C 143.954418130892 366 141.626941685768 366 136.97198879552 366 C 132.317035905272 366 129.98955946014797 366 125.3346065699 366 C 120.679653679652 366 118.352177234528 366 113.69722434428 366 C 109.042271454036 366 106.71479500891401 366 102.05984211867 366 C 97.4048892284212 366 95.07741278329681 366 90.422459893048 366 C 85.7675070028012 366 83.4400305576778 366 78.785077667431 366 C 74.1301247771838 366 67.147695441813 366 67.147695441813 366 C 67.147695441813 366 67.147695441813 366 67.147695441813 366"
        class="highcharts-area" data-z-index="0"></path>
      <path fill="none"
        d="M 67.147695441813 365.95608 C 67.147695441813 365.95608 74.1301247771838 365.95608 78.785077667431 365.91948 C 83.4400305576778 365.88288000000006 85.7675070028012 365.910696 90.422459893048 365.76576 C 95.07741278329681 365.62082399999997 97.4048892284212 365.49199200000015 102.05984211867 365.1948 C 106.71479500891401 364.89760800000016 109.042271454036 364.6589759999998 113.69722434428 364.2798 C 118.352177234528 363.9006239999999 120.679653679652 363.89184 125.3346065699 363.29892 C 129.98955946014797 362.706 132.317035905272 362.246304 136.97198879552 361.3152 C 141.626941685768 360.384096 143.954418130892 359.8087440000005 148.60937102114 358.6434 C 153.264323911384 357.4780560000005 155.59180035650598 357.0373919999993 160.24675324675 355.48848 C 164.90170613699797 353.9395679999993 167.22918258212198 353.27198400000003 171.88413547237 350.89884 C 176.53908836261797 348.52569600000004 178.866564807742 347.36328 183.52151769799 343.62275999999997 C 188.176470588238 339.88223999999997 190.503947033362 337.1548080000021 195.15889992361 332.19624 C 199.813852813854 327.23767200000214 202.141329258976 326.44857599999676 206.79628214922 318.82992 C 211.45123503946797 311.2112639999968 213.77871148459198 307.31409600000006 218.43366437484 294.10296 C 223.08861726508798 280.89182400000004 225.416093710212 268.31020799999993 230.07104660046 252.77424 C 234.725999490708 237.23827199999994 237.053475935832 229.0984320000054 241.70842882608 216.42312 C 246.363381716324 203.74780800000545 248.690858161446 199.57687199999557 253.34581105169 189.39768 C 258.00076394193803 179.2184879999956 260.328240387062 173.334672 264.98319327731 165.52716 C 269.63814616755803 157.719648 271.965622612682 155.731536 276.62057550293 150.36012 C 281.27552839317804 144.98870399999998 283.603004838302 142.36375200000157 288.25795772855 138.67007999999998 C 292.912910618794 134.97640800000158 295.24038706391605 132.31632000000002 299.89533995416 131.89176 C 304.55029284440803 131.4672 306.877769289532 131.4672 311.53272217978 131.4672 C 316.18767507002804 131.4672 318.51515151515207 133.251816 323.1701044054 137.37444 C 327.825057295648 141.49706399999997 330.152533740772 146.38389599999755 334.80748663102 152.08032 C 339.462439521264 157.77674399999754 341.78991596638605 162.10579200000163 346.44486885663 165.85656 C 351.09982174687804 169.60732800000162 353.427298192002 170.83416 358.08225108225 170.83416 C 362.73720397249804 170.83416 365.064680417622 170.51208 369.71963330787 168.68207999999998 C 374.37458619811804 166.85208 376.702062643242 164.6751120000013 381.35701553349 161.68416 C 386.011968423734 158.6932080000013 388.33944486885605 153.72732 392.9943977591 153.72732 C 397.649350649348 153.72732 399.976827094472 153.72732 404.63177998472 153.9762 C 409.28673287496804 154.22508000000002 411.6142093200921 157.356576 416.26916221034 162.31368 C 420.924115100588 167.270784 423.251591545712 178.76172 427.90654443596 178.76172 C 432.56149732620395 178.76172 434.888973771326 177.71496 439.54392666157 177.71496 C 444.19887955181804 177.71496 446.526355996942 182.65595999999996 451.18130888719 184.27367999999998 C 455.836261777438 185.8914 458.163738222562 185.127192 462.81869111281 185.8914 C 467.473644003058 186.65560800000003 469.80112044818196 186.42429599999926 474.45607333843 188.09472 C 479.111026228674 189.76514399999928 481.43850267379605 194.24352 486.09345556404 194.24352 C 490.748408454288 194.24352 493.075884899412 193.38707999999997 497.73083778966 192.45744 C 502.3857906799079 191.52779999999998 504.71326712503196 190.54545599999997 509.36822001528 189.59532 C 514.023172905528 188.645184 516.350649350652 187.70676 521.0056022409 187.70676 C 525.6605551311441 187.70676 527.988031576266 188.58516 532.64298446651 188.58516 C 537.297937356758 188.58516 539.6254138018819 187.38468 544.28036669213 187.38468 C 548.935319582378 187.38468 551.262796027502 187.38468 555.91774891775 187.80192 C 560.5727018079981 188.21916 562.900178253122 190.4751839999988 567.55513114337 193.35048 C 572.210084033614 196.22577599999877 574.5375604787359 198.39835200000158 579.19251336898 202.1784 C 583.847466259228 205.9584480000016 586.174942704352 204.79456800000008 590.8298955946 212.25072 C 595.484848484848 219.7068720000001 597.8123249299721 230.298912 602.46727782022 239.45916 C 607.122230710468 248.619408 609.449707155592 251.88705599999736 614.10466004584 258.05196 C 618.759612936084 264.2168639999974 621.0870893812059 267.0745920000013 625.74204227145 270.28368 C 630.396995161698 273.4927680000013 632.724471606822 272.732952 637.37942449707 274.0974 C 642.034377387318 275.461848 644.361853832442 274.84257599999995 649.01680672269 277.10591999999997 C 653.671759612938 279.36926399999993 655.999236058062 284.98224000000005 660.65418894831 285.41412 C 665.3091418385541 285.846 667.6366182836761 285.6439680000001 672.29157117392 285.846 C 676.946524064168 286.0480320000001 679.2740005092921 286.239816 683.92895339954 286.42428 C 688.583906289788 286.60874400000006 690.9113827349121 286.42428 695.56633562516 286.76832 C 700.221288515408 287.11236 702.548764960532 288.21036000000004 707.20371785078 288.57636 C 711.8586707410241 288.94236 714.1861471861461 288.7930320000001 718.84110007639 288.94236 C 723.496052966638 289.09168800000003 725.8235294117619 289.16781599999996 730.47848230201 289.323 C 735.133435192258 289.47818399999994 737.460911637382 289.546992 742.11586452763 289.71828 C 746.7708174178781 289.889568 749.098293863002 289.99497599999995 753.75324675325 290.17944 C 758.408199643494 290.36390399999993 760.735676088616 290.26874400000014 765.39062897886 290.6406 C 770.045581869108 291.01245600000016 772.373058314232 291.480936 777.02801120448 292.03872 C 781.6829640947279 292.59650400000004 784.010440539852 292.72094400000003 788.6653934301 293.42952 C 793.3203463203479 294.138096 795.647822765472 294.7207679999996 800.30277565572 295.5816 C 804.957728545964 296.4424319999996 807.285204991086 295.5816 811.94015788133 297.73368 C 816.595110771578 299.88576 818.922587216702 328.57284 823.57754010695 328.57284 C 828.2324929971979 328.57284 830.5599694423221 328.57284 835.21492233257 328.57284 C 839.869875222818 328.57284 842.197351667942 329.2843439999998 846.85230455819 329.73672 C 851.5072574484341 330.18909599999984 853.8347338935561 330.5521680000001 858.4896867838 330.83472 C 863.1446396740481 331.1172720000001 865.4721161191721 331.02211199999994 870.12706900942 331.14948 C 874.7820218996679 331.27684800000003 877.1094983447922 331.14948 881.76445123504 331.47156 C 886.419404125288 331.79364000000004 888.746880570412 333.00290399999955 893.40183346066 334.02624 C 898.0567863509041 335.04957599999955 905.03921568627 336.58824 905.03921568627 336.58824"
        class="highcharts-graph" data-z-index="1" stroke="#00469e" stroke-width="2"
        stroke-linejoin="round" stroke-linecap="round">
      </path>
      <path fill="none"
        d="M 57.147695441813 365.95608 L 67.147695441813 365.95608 C 67.147695441813 365.95608 74.1301247771838 365.95608 78.785077667431 365.91948 C 83.4400305576778 365.88288000000006 85.7675070028012 365.910696 90.422459893048 365.76576 C 95.07741278329681 365.62082399999997 97.4048892284212 365.49199200000015 102.05984211867 365.1948 C 106.71479500891401 364.89760800000016 109.042271454036 364.6589759999998 113.69722434428 364.2798 C 118.352177234528 363.9006239999999 120.679653679652 363.89184 125.3346065699 363.29892 C 129.98955946014797 362.706 132.317035905272 362.246304 136.97198879552 361.3152 C 141.626941685768 360.384096 143.954418130892 359.8087440000005 148.60937102114 358.6434 C 153.264323911384 357.4780560000005 155.59180035650598 357.0373919999993 160.24675324675 355.48848 C 164.90170613699797 353.9395679999993 167.22918258212198 353.27198400000003 171.88413547237 350.89884 C 176.53908836261797 348.52569600000004 178.866564807742 347.36328 183.52151769799 343.62275999999997 C 188.176470588238 339.88223999999997 190.503947033362 337.1548080000021 195.15889992361 332.19624 C 199.813852813854 327.23767200000214 202.141329258976 326.44857599999676 206.79628214922 318.82992 C 211.45123503946797 311.2112639999968 213.77871148459198 307.31409600000006 218.43366437484 294.10296 C 223.08861726508798 280.89182400000004 225.416093710212 268.31020799999993 230.07104660046 252.77424 C 234.725999490708 237.23827199999994 237.053475935832 229.0984320000054 241.70842882608 216.42312 C 246.363381716324 203.74780800000545 248.690858161446 199.57687199999557 253.34581105169 189.39768 C 258.00076394193803 179.2184879999956 260.328240387062 173.334672 264.98319327731 165.52716 C 269.63814616755803 157.719648 271.965622612682 155.731536 276.62057550293 150.36012 C 281.27552839317804 144.98870399999998 283.603004838302 142.36375200000157 288.25795772855 138.67007999999998 C 292.912910618794 134.97640800000158 295.24038706391605 132.31632000000002 299.89533995416 131.89176 C 304.55029284440803 131.4672 306.877769289532 131.4672 311.53272217978 131.4672 C 316.18767507002804 131.4672 318.51515151515207 133.251816 323.1701044054 137.37444 C 327.825057295648 141.49706399999997 330.152533740772 146.38389599999755 334.80748663102 152.08032 C 339.462439521264 157.77674399999754 341.78991596638605 162.10579200000163 346.44486885663 165.85656 C 351.09982174687804 169.60732800000162 353.427298192002 170.83416 358.08225108225 170.83416 C 362.73720397249804 170.83416 365.064680417622 170.51208 369.71963330787 168.68207999999998 C 374.37458619811804 166.85208 376.702062643242 164.6751120000013 381.35701553349 161.68416 C 386.011968423734 158.6932080000013 388.33944486885605 153.72732 392.9943977591 153.72732 C 397.649350649348 153.72732 399.976827094472 153.72732 404.63177998472 153.9762 C 409.28673287496804 154.22508000000002 411.6142093200921 157.356576 416.26916221034 162.31368 C 420.924115100588 167.270784 423.251591545712 178.76172 427.90654443596 178.76172 C 432.56149732620395 178.76172 434.888973771326 177.71496 439.54392666157 177.71496 C 444.19887955181804 177.71496 446.526355996942 182.65595999999996 451.18130888719 184.27367999999998 C 455.836261777438 185.8914 458.163738222562 185.127192 462.81869111281 185.8914 C 467.473644003058 186.65560800000003 469.80112044818196 186.42429599999926 474.45607333843 188.09472 C 479.111026228674 189.76514399999928 481.43850267379605 194.24352 486.09345556404 194.24352 C 490.748408454288 194.24352 493.075884899412 193.38707999999997 497.73083778966 192.45744 C 502.3857906799079 191.52779999999998 504.71326712503196 190.54545599999997 509.36822001528 189.59532 C 514.023172905528 188.645184 516.350649350652 187.70676 521.0056022409 187.70676 C 525.6605551311441 187.70676 527.988031576266 188.58516 532.64298446651 188.58516 C 537.297937356758 188.58516 539.6254138018819 187.38468 544.28036669213 187.38468 C 548.935319582378 187.38468 551.262796027502 187.38468 555.91774891775 187.80192 C 560.5727018079981 188.21916 562.900178253122 190.4751839999988 567.55513114337 193.35048 C 572.210084033614 196.22577599999877 574.5375604787359 198.39835200000158 579.19251336898 202.1784 C 583.847466259228 205.9584480000016 586.174942704352 204.79456800000008 590.8298955946 212.25072 C 595.484848484848 219.7068720000001 597.8123249299721 230.298912 602.46727782022 239.45916 C 607.122230710468 248.619408 609.449707155592 251.88705599999736 614.10466004584 258.05196 C 618.759612936084 264.2168639999974 621.0870893812059 267.0745920000013 625.74204227145 270.28368 C 630.396995161698 273.4927680000013 632.724471606822 272.732952 637.37942449707 274.0974 C 642.034377387318 275.461848 644.361853832442 274.84257599999995 649.01680672269 277.10591999999997 C 653.671759612938 279.36926399999993 655.999236058062 284.98224000000005 660.65418894831 285.41412 C 665.3091418385541 285.846 667.6366182836761 285.6439680000001 672.29157117392 285.846 C 676.946524064168 286.0480320000001 679.2740005092921 286.239816 683.92895339954 286.42428 C 688.583906289788 286.60874400000006 690.9113827349121 286.42428 695.56633562516 286.76832 C 700.221288515408 287.11236 702.548764960532 288.21036000000004 707.20371785078 288.57636 C 711.8586707410241 288.94236 714.1861471861461 288.7930320000001 718.84110007639 288.94236 C 723.496052966638 289.09168800000003 725.8235294117619 289.16781599999996 730.47848230201 289.323 C 735.133435192258 289.47818399999994 737.460911637382 289.546992 742.11586452763 289.71828 C 746.7708174178781 289.889568 749.098293863002 289.99497599999995 753.75324675325 290.17944 C 758.408199643494 290.36390399999993 760.735676088616 290.26874400000014 765.39062897886 290.6406 C 770.045581869108 291.01245600000016 772.373058314232 291.480936 777.02801120448 292.03872 C 781.6829640947279 292.59650400000004 784.010440539852 292.72094400000003 788.6653934301 293.42952 C 793.3203463203479 294.138096 795.647822765472 294.7207679999996 800.30277565572 295.5816 C 804.957728545964 296.4424319999996 807.285204991086 295.5816 811.94015788133 297.73368 C 816.595110771578 299.88576 818.922587216702 328.57284 823.57754010695 328.57284 C 828.2324929971979 328.57284 830.5599694423221 328.57284 835.21492233257 328.57284 C 839.869875222818 328.57284 842.197351667942 329.2843439999998 846.85230455819 329.73672 C 851.5072574484341 330.18909599999984 853.8347338935561 330.5521680000001 858.4896867838 330.83472 C 863.1446396740481 331.1172720000001 865.4721161191721 331.02211199999994 870.12706900942 331.14948 C 874.7820218996679 331.27684800000003 877.1094983447922 331.14948 881.76445123504 331.47156 C 886.419404125288 331.79364000000004 888.746880570412 333.00290399999955 893.40183346066 334.02624 C 898.0567863509041 335.04957599999955 905.03921568627 336.58824 905.03921568627 336.58824 L 915.03921568627 336.58824"
        visibility="visible" data-z-index="2" class="highcharts-tracker-line"
        stroke-linejoin="round" stroke="rgba(192,192,192,0.0001)" stroke-width="22"></path>
    </g>
    <g data-z-index="0.1"
      class="highcharts-markers highcharts-series-0 highcharts-areaspline-series highcharts-color-0 highcharts-tracker"
      transform="translate(46,10) scale(1 1)">
      <path fill="#00469e" d="M 71 366 A 4 4 0 1 1 70.99999800000016 365.99600000066664 Z"
        class="highcharts-point highcharts-color-0"></path>
      <path fill="#00469e" d="M 82 366 A 4 4 0 1 1 81.99999800000016 365.99600000066664 Z"
        class="highcharts-point highcharts-color-0"></path>
      <path fill="#00469e" d="M 94 366 A 4 4 0 1 1 93.99999800000016 365.99600000066664 Z"
        class="highcharts-point highcharts-color-0"></path>
      <path fill="#00469e" d="M 106 365 A 4 4 0 1 1 105.99999800000016 364.99600000066664 Z"
        class="highcharts-point highcharts-color-0"></path>
      <path fill="#00469e" d="M 117 364 A 4 4 0 1 1 116.99999800000016 363.99600000066664 Z"
        class="highcharts-point highcharts-color-0"></path>
      <path fill="#00469e" d="M 129 363 A 4 4 0 1 1 128.99999800000018 362.99600000066664 Z"
        class="highcharts-point highcharts-color-0"></path>
      <path fill="#00469e" d="M 140 361 A 4 4 0 1 1 139.99999800000018 360.99600000066664 Z"
        class="highcharts-point highcharts-color-0"></path>
      <path fill="#00469e" d="M 152 359 A 4 4 0 1 1 151.99999800000018 358.99600000066664 Z"
        class="highcharts-point highcharts-color-0"></path>
      <path fill="#00469e" d="M 164 355 A 4 4 0 1 1 163.99999800000018 354.99600000066664 Z"
        class="highcharts-point highcharts-color-0"></path>
      <path fill="#00469e" d="M 175 351 A 4 4 0 1 1 174.99999800000018 350.99600000066664 Z"
        class="highcharts-point highcharts-color-0"></path>
      <path fill="#00469e" d="M 187 344 A 4 4 0 1 1 186.99999800000018 343.99600000066664 Z"
        class="highcharts-point highcharts-color-0"></path>
      <path fill="#00469e" d="M 199 332 A 4 4 0 1 1 198.99999800000018 331.99600000066664 Z"
        class="highcharts-point highcharts-color-0"></path>
      <path fill="#00469e" d="M 210 319 A 4 4 0 1 1 209.99999800000018 318.99600000066664 Z"
        class="highcharts-point highcharts-color-0"></path>
      <path fill="#00469e" d="M 222 294 A 4 4 0 1 1 221.99999800000018 293.99600000066664 Z"
        class="highcharts-point highcharts-color-0"></path>
      <path fill="#00469e" d="M 234 253 A 4 4 0 1 1 233.99999800000018 252.99600000066667 Z"
        class="highcharts-point highcharts-color-0"></path>
      <path fill="#00469e" d="M 245 216 A 4 4 0 1 1 244.99999800000018 215.99600000066667 Z"
        class="highcharts-point highcharts-color-0"></path>
      <path fill="#00469e" d="M 257 189 A 4 4 0 1 1 256.9999980000002 188.99600000066667 Z"
        class="highcharts-point highcharts-color-0"></path>
      <path fill="#00469e" d="M 268 166 A 4 4 0 1 1 267.9999980000002 165.99600000066667 Z"
        class="highcharts-point highcharts-color-0"></path>
      <path fill="#00469e" d="M 280 150 A 4 4 0 1 1 279.9999980000002 149.99600000066667 Z"
        class="highcharts-point highcharts-color-0"></path>
      <path fill="#00469e" d="M 292 139 A 4 4 0 1 1 291.9999980000002 138.99600000066667 Z"
        class="highcharts-point highcharts-color-0"></path>
      <path fill="#00469e" d="M 303 132 A 4 4 0 1 1 302.9999980000002 131.99600000066667 Z"
        class="highcharts-point highcharts-color-0"></path>
      <path fill="#00469e" d="M 315 131 A 4 4 0 1 1 314.9999980000002 130.99600000066667 Z"
        class="highcharts-point highcharts-color-0"></path>
      <path fill="#00469e" d="M 327 137 A 4 4 0 1 1 326.9999980000002 136.99600000066667 Z"
        class="highcharts-point highcharts-color-0"></path>
      <path fill="#00469e" d="M 338 152 A 4 4 0 1 1 337.9999980000002 151.99600000066667 Z"
        class="highcharts-point highcharts-color-0"></path>
      <path fill="#00469e" d="M 350 166 A 4 4 0 1 1 349.9999980000002 165.99600000066667 Z"
        class="highcharts-point highcharts-color-0"></path>
      <path fill="#00469e" d="M 362 171 A 4 4 0 1 1 361.9999980000002 170.99600000066667 Z"
        class="highcharts-point highcharts-color-0"></path>
      <path fill="#00469e" d="M 373 169 A 4 4 0 1 1 372.9999980000002 168.99600000066667 Z"
        class="highcharts-point highcharts-color-0"></path>
      <path fill="#00469e" d="M 385 162 A 4 4 0 1 1 384.9999980000002 161.99600000066667 Z"
        class="highcharts-point highcharts-color-0"></path>
      <path fill="#00469e" d="M 396 154 A 4 4 0 1 1 395.9999980000002 153.99600000066667 Z"
        class="highcharts-point highcharts-color-0"></path>
      <path fill="#00469e" d="M 408 154 A 4 4 0 1 1 407.9999980000002 153.99600000066667 Z"
        class="highcharts-point highcharts-color-0"></path>
      <path fill="#00469e" d="M 420 162 A 4 4 0 1 1 419.9999980000002 161.99600000066667 Z"
        class="highcharts-point highcharts-color-0"></path>
      <path fill="#00469e" d="M 431 179 A 4 4 0 1 1 430.9999980000002 178.99600000066667 Z"
        class="highcharts-point highcharts-color-0"></path>
      <path fill="#00469e" d="M 443 178 A 4 4 0 1 1 442.9999980000002 177.99600000066667 Z"
        class="highcharts-point highcharts-color-0"></path>
      <path fill="#00469e" d="M 455 184 A 4 4 0 1 1 454.9999980000002 183.99600000066667 Z"
        class="highcharts-point highcharts-color-0"></path>
      <path fill="#00469e" d="M 466 186 A 4 4 0 1 1 465.9999980000002 185.99600000066667 Z"
        class="highcharts-point highcharts-color-0"></path>
      <path fill="#00469e" d="M 478 188 A 4 4 0 1 1 477.9999980000002 187.99600000066667 Z"
        class="highcharts-point highcharts-color-0"></path>
      <path fill="#00469e" d="M 490 194 A 4 4 0 1 1 489.9999980000002 193.99600000066667 Z"
        class="highcharts-point highcharts-color-0"></path>
      <path fill="#00469e" d="M 501 192 A 4 4 0 1 1 500.9999980000002 191.99600000066667 Z"
        class="highcharts-point highcharts-color-0"></path>
      <path fill="#00469e" d="M 513 190 A 4 4 0 1 1 512.9999980000001 189.99600000066667 Z"
        class="highcharts-point highcharts-color-0"></path>
      <path fill="#00469e" d="M 525 188 A 4 4 0 1 1 524.9999980000001 187.99600000066667 Z"
        class="highcharts-point highcharts-color-0"></path>
      <path fill="#00469e" d="M 536 189 A 4 4 0 1 1 535.9999980000001 188.99600000066667 Z"
        class="highcharts-point highcharts-color-0"></path>
      <path fill="#00469e" d="M 548 187 A 4 4 0 1 1 547.9999980000001 186.99600000066667 Z"
        class="highcharts-point highcharts-color-0"></path>
      <path fill="#00469e" d="M 559 188 A 4 4 0 1 1 558.9999980000001 187.99600000066667 Z"
        class="highcharts-point highcharts-color-0"></path>
      <path fill="#00469e" d="M 571 193 A 4 4 0 1 1 570.9999980000001 192.99600000066667 Z"
        class="highcharts-point highcharts-color-0"></path>
      <path fill="#00469e" d="M 583 202 A 4 4 0 1 1 582.9999980000001 201.99600000066667 Z"
        class="highcharts-point highcharts-color-0"></path>
      <path fill="#00469e" d="M 594 212 A 4 4 0 1 1 593.9999980000001 211.99600000066667 Z"
        class="highcharts-point highcharts-color-0"></path>
      <path fill="#00469e" d="M 606 239 A 4 4 0 1 1 605.9999980000001 238.99600000066667 Z"
        class="highcharts-point highcharts-color-0"></path>
      <path fill="#00469e" d="M 618 258 A 4 4 0 1 1 617.9999980000001 257.99600000066664 Z"
        class="highcharts-point highcharts-color-0"></path>
      <path fill="#00469e" d="M 629 270 A 4 4 0 1 1 628.9999980000001 269.99600000066664 Z"
        class="highcharts-point highcharts-color-0"></path>
      <path fill="#00469e" d="M 641 274 A 4 4 0 1 1 640.9999980000001 273.99600000066664 Z"
        class="highcharts-point highcharts-color-0"></path>
      <path fill="#00469e" d="M 653 277 A 4 4 0 1 1 652.9999980000001 276.99600000066664 Z"
        class="highcharts-point highcharts-color-0"></path>
      <path fill="#00469e" d="M 664 285 A 4 4 0 1 1 663.9999980000001 284.99600000066664 Z"
        class="highcharts-point highcharts-color-0"></path>
      <path fill="#00469e" d="M 676 286 A 4 4 0 1 1 675.9999980000001 285.99600000066664 Z"
        class="highcharts-point highcharts-color-0"></path>
      <path fill="#00469e" d="M 687 286 A 4 4 0 1 1 686.9999980000001 285.99600000066664 Z"
        class="highcharts-point highcharts-color-0"></path>
      <path fill="#00469e" d="M 699 287 A 4 4 0 1 1 698.9999980000001 286.99600000066664 Z"
        class="highcharts-point highcharts-color-0"></path>
      <path fill="#00469e" d="M 711 289 A 4 4 0 1 1 710.9999980000001 288.99600000066664 Z"
        class="highcharts-point highcharts-color-0"></path>
      <path fill="#00469e" d="M 722 289 A 4 4 0 1 1 721.9999980000001 288.99600000066664 Z"
        class="highcharts-point highcharts-color-0"></path>
      <path fill="#00469e" d="M 734 289 A 4 4 0 1 1 733.9999980000001 288.99600000066664 Z"
        class="highcharts-point highcharts-color-0"></path>
      <path fill="#00469e" d="M 746 290 A 4 4 0 1 1 745.9999980000001 289.99600000066664 Z"
        class="highcharts-point highcharts-color-0"></path>
      <path fill="#00469e" d="M 757 290 A 4 4 0 1 1 756.9999980000001 289.99600000066664 Z"
        class="highcharts-point highcharts-color-0"></path>
      <path fill="#00469e" d="M 769 291 A 4 4 0 1 1 768.9999980000001 290.99600000066664 Z"
        class="highcharts-point highcharts-color-0"></path>
      <path fill="#00469e" d="M 781 292 A 4 4 0 1 1 780.9999980000001 291.99600000066664 Z"
        class="highcharts-point highcharts-color-0"></path>
      <path fill="#00469e" d="M 792 293 A 4 4 0 1 1 791.9999980000001 292.99600000066664 Z"
        class="highcharts-point highcharts-color-0"></path>
      <path fill="#00469e" d="M 804 296 A 4 4 0 1 1 803.9999980000001 295.99600000066664 Z"
        class="highcharts-point highcharts-color-0"></path>
      <path fill="#00469e" d="M 815 298 A 4 4 0 1 1 814.9999980000001 297.99600000066664 Z"
        class="highcharts-point highcharts-color-0"></path>
      <path fill="#00469e" d="M 827 329 A 4 4 0 1 1 826.9999980000001 328.99600000066664 Z"
        class="highcharts-point highcharts-color-0"></path>
      <path fill="#00469e" d="M 839 329 A 4 4 0 1 1 838.9999980000001 328.99600000066664 Z"
        class="highcharts-point highcharts-color-0"></path>
      <path fill="#00469e" d="M 850 330 A 4 4 0 1 1 849.9999980000001 329.99600000066664 Z"
        class="highcharts-point highcharts-color-0"></path>
      <path fill="#00469e" d="M 862 331 A 4 4 0 1 1 861.9999980000001 330.99600000066664 Z"
        class="highcharts-point highcharts-color-0"></path>
      <path fill="#00469e" d="M 874 331 A 4 4 0 1 1 873.9999980000001 330.99600000066664 Z"
        class="highcharts-point highcharts-color-0"></path>
      <path fill="#00469e" d="M 885 331 A 4 4 0 1 1 884.9999980000001 330.99600000066664 Z"
        class="highcharts-point highcharts-color-0"></path>
      <path fill="#00469e" d="M 897 334 A 4 4 0 1 1 896.9999980000001 333.99600000066664 Z"
        class="highcharts-point highcharts-color-0"></path>
      <path fill="#00469e" d="M 909 337 A 4 4 0 1 1 908.9999980000001 336.99600000066664 Z"
        class="highcharts-point highcharts-color-0"></path>
    </g>
    <g data-z-index="0.1"
      class="highcharts-series highcharts-series-1 highcharts-areaspline-series highcharts-color-1 "
      transform="translate(46,10) scale(1 1)" clip-path="url(#highcharts-v57xvtb-1)">
      <path fill="rgba(248,189,49,0.75)"
        d="M 125.3346065699 366 C 125.3346065699 366 125.3346065699 365.9634 125.3346065699 365.9634 C 125.3346065699 365.9634 132.317035905272 365.88288 136.97198879552 365.817 C 141.626941685768 365.75112 143.954418130892 365.7730800000001 148.60937102114 365.634 C 153.264323911384 365.4949200000001 155.59180035650598 365.268 160.24675324675 365.1216 C 164.90170613699797 364.9751999999999 167.22918258212198 365.01912000000004 171.88413547237 364.902 C 176.53908836261797 364.78488 178.866564807742 364.902 183.52151769799 364.536 C 188.176470588238 364.17 190.503947033362 363.5551200000003 195.15889992361 362.88168 C 199.813852813854 362.20824000000033 202.141329258976 361.81735199999974 206.79628214922 361.1688 C 211.45123503946797 360.5202479999997 213.77871148459198 360.22452 218.43366437484 359.63892 C 223.08861726508798 359.05332000000004 225.416093710212 359.31830399999996 230.07104660046 358.2408 C 234.725999490708 357.163296 237.053475935832 356.3171040000009 241.70842882608 354.2514 C 246.363381716324 352.18569600000086 248.690858161446 350.42596799999893 253.34581105169 347.91228 C 258.00076394193803 345.3985919999989 260.328240387062 344.26984799999997 264.98319327731 341.68296 C 269.63814616755803 339.096072 271.965622612682 337.75797600000004 276.62057550293 334.97784 C 281.27552839317804 332.19770400000004 283.603004838302 330.55070400000125 288.25795772855 327.78228 C 292.912910618794 325.0138560000012 295.24038706391605 323.8704719999988 299.89533995416 321.13572 C 304.55029284440803 318.4009679999988 306.877769289532 317.34396 311.53272217978 314.10852 C 316.18767507002804 310.87308 318.51515151515207 308.34036 323.1701044054 304.95852 C 327.825057295648 301.57668 330.152533740772 300.4186560000014 334.80748663102 297.19932 C 339.462439521264 293.9799840000014 341.78991596638605 292.1470559999986 346.44486885663 288.86184000000003 C 351.09982174687804 285.5766239999986 353.427298192002 284.512296 358.08225108225 280.77324 C 362.73720397249804 277.034184 365.064680417622 274.31699999999995 369.71963330787 270.16656 C 374.37458619811804 266.01612 376.702062643242 264.15391200000175 381.35701553349 260.02103999999997 C 386.011968423734 255.88816800000177 388.33944486885605 253.75804799999815 392.9943977591 249.50220000000002 C 397.649350649348 245.24635199999824 399.976827094472 243.33876 404.63177998472 238.7418 C 409.28673287496804 234.14484000000004 411.6142093200921 232.10988 416.26916221034 226.5174 C 420.924115100588 220.92492 423.251591545712 216.6192960000025 427.90654443596 210.7794 C 432.56149732620395 204.9395040000025 434.888973771326 203.44915199999738 439.54392666157 197.31792 C 444.19887955181804 191.18668799999736 446.526355996942 187.28366400000007 451.18130888719 180.12324 C 455.836261777438 172.96281600000006 458.163738222562 168.35121599999997 462.81869111281 161.51579999999998 C 467.473644003058 154.68038399999995 469.80112044818196 151.96905600000258 474.45607333843 145.94616 C 479.111026228674 139.92326400000258 481.43850267379605 137.09627999999756 486.09345556404 131.40132 C 490.748408454288 125.70635999999757 493.075884899412 122.96868 497.73083778966 117.47136 C 502.3857906799079 111.97404 504.71326712503196 109.00797599999999 509.36822001528 103.91471999999999 C 514.023172905528 98.82146399999999 516.350649350652 96.97243200000209 521.0056022409 92.00508000000002 C 525.6605551311441 87.03772800000209 527.988031576266 90.15897599999528 532.64298446651 79.07796000000002 C 537.297937356758 67.99694399999528 539.6254138018819 36.60000000000002 544.28036669213 36.60000000000002 C 548.935319582378 36.60000000000002 551.262796027502 45.384000000000015 555.91774891775 51.24000000000001 C 560.5727018079981 57.096000000000004 562.900178253122 60.0239999999975 567.55513114337 65.88 C 572.210084033614 71.73599999999749 574.5375604787359 74.66400000000242 579.19251336898 80.51999999999998 C 583.847466259228 86.3760000000024 586.174942704352 89.30400000000003 590.8298955946 95.15999999999997 C 595.484848484848 101.01600000000005 597.8123249299721 103.94400000000002 602.46727782022 109.80000000000001 C 607.122230710468 115.656 609.449707155592 118.58399999999752 614.10466004584 124.44 C 618.759612936084 130.2959999999975 621.0870893812059 133.22400000000243 625.74204227145 139.07999999999998 C 630.396995161698 144.93600000000242 632.724471606822 147.8640000000001 637.37942449707 153.72 C 642.034377387318 159.57600000000008 644.361853832442 162.5039999999999 649.01680672269 168.35999999999999 C 653.671759612938 174.2159999999999 655.999236058062 178.60799999999819 660.65418894831 183 C 665.3091418385541 187.39199999999818 667.6366182836761 187.39200000000125 672.29157117392 190.32 C 676.946524064168 193.24800000000124 679.2740005092921 194.71200000000007 683.92895339954 197.64 C 688.583906289788 200.56800000000007 690.9113827349121 202.032 695.56633562516 204.96 C 700.221288515408 207.88800000000003 702.548764960532 209.35199999999878 707.20371785078 212.28 C 711.8586707410241 215.20799999999878 714.1861471861461 216.67200000000125 718.84110007639 219.6 C 723.496052966638 222.52800000000124 725.8235294117619 223.992 730.47848230201 226.92 C 735.133435192258 229.84799999999998 737.460911637382 234.24 742.11586452763 234.24 C 746.7708174178781 234.24 749.098293863002 234.24 753.75324675325 234.24 C 758.408199643494 234.24 760.735676088616 238.63200000000123 765.39062897886 241.56 C 770.045581869108 244.48800000000122 772.373058314232 246.738168 777.02801120448 248.88 C 781.6829640947279 251.021832 784.010440539852 249.5783279999999 788.6653934301 252.26916 C 793.3203463203479 254.95999199999994 795.647822765472 258.3081599999983 800.30277565572 262.33416 C 804.957728545964 266.3601599999983 807.285204991086 271.03031999999996 811.94015788133 272.39916 C 816.595110771578 273.76800000000003 818.922587216702 272.39916 823.57754010695 273.76800000000003 C 828.2324929971979 275.13684000000006 830.5599694423221 273.76800000000003 835.21492233257 282.552 C 839.869875222818 291.336 842.197351667942 318.50784 846.85230455819 325.74 C 851.5072574484341 332.97216000000003 853.8347338935561 332.89896000000005 858.4896867838 332.97216000000003 C 863.1446396740481 333.04536 865.4721161191721 333.04536 870.12706900942 333.04536 C 874.7820218996679 333.04536 877.1094983447922 333.04536 881.76445123504 333.04536 C 886.419404125288 333.04536 888.746880570412 333.06 893.40183346066 333.06 C 898.0567863509041 333.06 905.03921568627 333.06 905.03921568627 333.06 L 905.03921568627 366 C 905.03921568627 366 898.0567863509041 366 893.40183346066 366 C 888.746880570412 366 886.419404125288 366 881.76445123504 366 C 877.1094983447922 366 874.7820218996679 366 870.12706900942 366 C 865.4721161191721 366 863.1446396740481 366 858.4896867838 366 C 853.8347338935561 366 851.5072574484341 366 846.85230455819 366 C 842.197351667942 366 839.869875222818 366 835.21492233257 366 C 830.5599694423221 366 828.2324929971979 366 823.57754010695 366 C 818.922587216702 366 816.595110771578 366 811.94015788133 366 C 807.285204991086 366 804.957728545964 366 800.30277565572 366 C 795.647822765472 366 793.3203463203479 366 788.6653934301 366 C 784.010440539852 366 781.6829640947279 366 777.02801120448 366 C 772.373058314232 366 770.045581869108 366 765.39062897886 366 C 760.735676088616 366 758.408199643494 366 753.75324675325 366 C 749.098293863002 366 746.7708174178781 366 742.11586452763 366 C 737.460911637382 366 735.133435192258 366 730.47848230201 366 C 725.8235294117619 366 723.496052966638 366 718.84110007639 366 C 714.1861471861461 366 711.8586707410241 366 707.20371785078 366 C 702.548764960532 366 700.221288515408 366 695.56633562516 366 C 690.9113827349121 366 688.583906289788 366 683.92895339954 366 C 679.2740005092921 366 676.946524064168 366 672.29157117392 366 C 667.6366182836761 366 665.3091418385541 366 660.65418894831 366 C 655.999236058062 366 653.671759612938 366 649.01680672269 366 C 644.361853832442 366 642.034377387318 366 637.37942449707 366 C 632.724471606822 366 630.396995161698 366 625.74204227145 366 C 621.0870893812059 366 618.759612936084 366 614.10466004584 366 C 609.449707155592 366 607.122230710468 366 602.46727782022 366 C 597.8123249299721 366 595.484848484848 366 590.8298955946 366 C 586.174942704352 366 583.847466259228 366 579.19251336898 366 C 574.5375604787359 366 572.210084033614 366 567.55513114337 366 C 562.900178253122 366 560.5727018079981 366 555.91774891775 366 C 551.262796027502 366 548.935319582378 366 544.28036669213 366 C 539.6254138018819 366 537.297937356758 366 532.64298446651 366 C 527.988031576266 366 525.6605551311441 366 521.0056022409 366 C 516.350649350652 366 514.023172905528 366 509.36822001528 366 C 504.71326712503196 366 502.3857906799079 366 497.73083778966 366 C 493.075884899412 366 490.748408454288 366 486.09345556404 366 C 481.43850267379605 366 479.111026228674 366 474.45607333843 366 C 469.80112044818196 366 467.473644003058 366 462.81869111281 366 C 458.163738222562 366 455.836261777438 366 451.18130888719 366 C 446.526355996942 366 444.19887955181804 366 439.54392666157 366 C 434.888973771326 366 432.56149732620395 366 427.90654443596 366 C 423.251591545712 366 420.924115100588 366 416.26916221034 366 C 411.6142093200921 366 409.28673287496804 366 404.63177998472 366 C 399.976827094472 366 397.649350649348 366 392.9943977591 366 C 388.33944486885605 366 386.011968423734 366 381.35701553349 366 C 376.702062643242 366 374.37458619811804 366 369.71963330787 366 C 365.064680417622 366 362.73720397249804 366 358.08225108225 366 C 353.427298192002 366 351.09982174687804 366 346.44486885663 366 C 341.78991596638605 366 339.462439521264 366 334.80748663102 366 C 330.152533740772 366 327.825057295648 366 323.1701044054 366 C 318.51515151515207 366 316.18767507002804 366 311.53272217978 366 C 306.877769289532 366 304.55029284440803 366 299.89533995416 366 C 295.24038706391605 366 292.912910618794 366 288.25795772855 366 C 283.603004838302 366 281.27552839317804 366 276.62057550293 366 C 271.965622612682 366 269.63814616755803 366 264.98319327731 366 C 260.328240387062 366 258.00076394193803 366 253.34581105169 366 C 248.690858161446 366 246.363381716324 366 241.70842882608 366 C 237.053475935832 366 234.725999490708 366 230.07104660046 366 C 225.416093710212 366 223.08861726508798 366 218.43366437484 366 C 213.77871148459198 366 211.45123503946797 366 206.79628214922 366 C 202.141329258976 366 199.813852813854 366 195.15889992361 366 C 190.503947033362 366 188.176470588238 366 183.52151769799 366 C 178.866564807742 366 176.53908836261797 366 171.88413547237 366 C 167.22918258212198 366 164.90170613699797 366 160.24675324675 366 C 155.59180035650598 366 153.264323911384 366 148.60937102114 366 C 143.954418130892 366 141.626941685768 366 136.97198879552 366 C 132.317035905272 366 125.3346065699 366 125.3346065699 366 C 125.3346065699 366 125.3346065699 366 125.3346065699 366"
        class="highcharts-area" data-z-index="0"></path>
      <path fill="none"
        d="M 125.3346065699 365.9634 C 125.3346065699 365.9634 132.317035905272 365.88288 136.97198879552 365.817 C 141.626941685768 365.75112 143.954418130892 365.7730800000001 148.60937102114 365.634 C 153.264323911384 365.4949200000001 155.59180035650598 365.268 160.24675324675 365.1216 C 164.90170613699797 364.9751999999999 167.22918258212198 365.01912000000004 171.88413547237 364.902 C 176.53908836261797 364.78488 178.866564807742 364.902 183.52151769799 364.536 C 188.176470588238 364.17 190.503947033362 363.5551200000003 195.15889992361 362.88168 C 199.813852813854 362.20824000000033 202.141329258976 361.81735199999974 206.79628214922 361.1688 C 211.45123503946797 360.5202479999997 213.77871148459198 360.22452 218.43366437484 359.63892 C 223.08861726508798 359.05332000000004 225.416093710212 359.31830399999996 230.07104660046 358.2408 C 234.725999490708 357.163296 237.053475935832 356.3171040000009 241.70842882608 354.2514 C 246.363381716324 352.18569600000086 248.690858161446 350.42596799999893 253.34581105169 347.91228 C 258.00076394193803 345.3985919999989 260.328240387062 344.26984799999997 264.98319327731 341.68296 C 269.63814616755803 339.096072 271.965622612682 337.75797600000004 276.62057550293 334.97784 C 281.27552839317804 332.19770400000004 283.603004838302 330.55070400000125 288.25795772855 327.78228 C 292.912910618794 325.0138560000012 295.24038706391605 323.8704719999988 299.89533995416 321.13572 C 304.55029284440803 318.4009679999988 306.877769289532 317.34396 311.53272217978 314.10852 C 316.18767507002804 310.87308 318.51515151515207 308.34036 323.1701044054 304.95852 C 327.825057295648 301.57668 330.152533740772 300.4186560000014 334.80748663102 297.19932 C 339.462439521264 293.9799840000014 341.78991596638605 292.1470559999986 346.44486885663 288.86184000000003 C 351.09982174687804 285.5766239999986 353.427298192002 284.512296 358.08225108225 280.77324 C 362.73720397249804 277.034184 365.064680417622 274.31699999999995 369.71963330787 270.16656 C 374.37458619811804 266.01612 376.702062643242 264.15391200000175 381.35701553349 260.02103999999997 C 386.011968423734 255.88816800000177 388.33944486885605 253.75804799999815 392.9943977591 249.50220000000002 C 397.649350649348 245.24635199999824 399.976827094472 243.33876 404.63177998472 238.7418 C 409.28673287496804 234.14484000000004 411.6142093200921 232.10988 416.26916221034 226.5174 C 420.924115100588 220.92492 423.251591545712 216.6192960000025 427.90654443596 210.7794 C 432.56149732620395 204.9395040000025 434.888973771326 203.44915199999738 439.54392666157 197.31792 C 444.19887955181804 191.18668799999736 446.526355996942 187.28366400000007 451.18130888719 180.12324 C 455.836261777438 172.96281600000006 458.163738222562 168.35121599999997 462.81869111281 161.51579999999998 C 467.473644003058 154.68038399999995 469.80112044818196 151.96905600000258 474.45607333843 145.94616 C 479.111026228674 139.92326400000258 481.43850267379605 137.09627999999756 486.09345556404 131.40132 C 490.748408454288 125.70635999999757 493.075884899412 122.96868 497.73083778966 117.47136 C 502.3857906799079 111.97404 504.71326712503196 109.00797599999999 509.36822001528 103.91471999999999 C 514.023172905528 98.82146399999999 516.350649350652 96.97243200000209 521.0056022409 92.00508000000002 C 525.6605551311441 87.03772800000209 527.988031576266 90.15897599999528 532.64298446651 79.07796000000002 C 537.297937356758 67.99694399999528 539.6254138018819 36.60000000000002 544.28036669213 36.60000000000002 C 548.935319582378 36.60000000000002 551.262796027502 45.384000000000015 555.91774891775 51.24000000000001 C 560.5727018079981 57.096000000000004 562.900178253122 60.0239999999975 567.55513114337 65.88 C 572.210084033614 71.73599999999749 574.5375604787359 74.66400000000242 579.19251336898 80.51999999999998 C 583.847466259228 86.3760000000024 586.174942704352 89.30400000000003 590.8298955946 95.15999999999997 C 595.484848484848 101.01600000000005 597.8123249299721 103.94400000000002 602.46727782022 109.80000000000001 C 607.122230710468 115.656 609.449707155592 118.58399999999752 614.10466004584 124.44 C 618.759612936084 130.2959999999975 621.0870893812059 133.22400000000243 625.74204227145 139.07999999999998 C 630.396995161698 144.93600000000242 632.724471606822 147.8640000000001 637.37942449707 153.72 C 642.034377387318 159.57600000000008 644.361853832442 162.5039999999999 649.01680672269 168.35999999999999 C 653.671759612938 174.2159999999999 655.999236058062 178.60799999999819 660.65418894831 183 C 665.3091418385541 187.39199999999818 667.6366182836761 187.39200000000125 672.29157117392 190.32 C 676.946524064168 193.24800000000124 679.2740005092921 194.71200000000007 683.92895339954 197.64 C 688.583906289788 200.56800000000007 690.9113827349121 202.032 695.56633562516 204.96 C 700.221288515408 207.88800000000003 702.548764960532 209.35199999999878 707.20371785078 212.28 C 711.8586707410241 215.20799999999878 714.1861471861461 216.67200000000125 718.84110007639 219.6 C 723.496052966638 222.52800000000124 725.8235294117619 223.992 730.47848230201 226.92 C 735.133435192258 229.84799999999998 737.460911637382 234.24 742.11586452763 234.24 C 746.7708174178781 234.24 749.098293863002 234.24 753.75324675325 234.24 C 758.408199643494 234.24 760.735676088616 238.63200000000123 765.39062897886 241.56 C 770.045581869108 244.48800000000122 772.373058314232 246.738168 777.02801120448 248.88 C 781.6829640947279 251.021832 784.010440539852 249.5783279999999 788.6653934301 252.26916 C 793.3203463203479 254.95999199999994 795.647822765472 258.3081599999983 800.30277565572 262.33416 C 804.957728545964 266.3601599999983 807.285204991086 271.03031999999996 811.94015788133 272.39916 C 816.595110771578 273.76800000000003 818.922587216702 272.39916 823.57754010695 273.76800000000003 C 828.2324929971979 275.13684000000006 830.5599694423221 273.76800000000003 835.21492233257 282.552 C 839.869875222818 291.336 842.197351667942 318.50784 846.85230455819 325.74 C 851.5072574484341 332.97216000000003 853.8347338935561 332.89896000000005 858.4896867838 332.97216000000003 C 863.1446396740481 333.04536 865.4721161191721 333.04536 870.12706900942 333.04536 C 874.7820218996679 333.04536 877.1094983447922 333.04536 881.76445123504 333.04536 C 886.419404125288 333.04536 888.746880570412 333.06 893.40183346066 333.06 C 898.0567863509041 333.06 905.03921568627 333.06 905.03921568627 333.06"
        class="highcharts-graph" data-z-index="1" stroke="#f8bd31" stroke-width="2"
        stroke-linejoin="round" stroke-linecap="round">
      </path>
      <path fill="none"
        d="M 115.3346065699 365.9634 L 125.3346065699 365.9634 C 125.3346065699 365.9634 132.317035905272 365.88288 136.97198879552 365.817 C 141.626941685768 365.75112 143.954418130892 365.7730800000001 148.60937102114 365.634 C 153.264323911384 365.4949200000001 155.59180035650598 365.268 160.24675324675 365.1216 C 164.90170613699797 364.9751999999999 167.22918258212198 365.01912000000004 171.88413547237 364.902 C 176.53908836261797 364.78488 178.866564807742 364.902 183.52151769799 364.536 C 188.176470588238 364.17 190.503947033362 363.5551200000003 195.15889992361 362.88168 C 199.813852813854 362.20824000000033 202.141329258976 361.81735199999974 206.79628214922 361.1688 C 211.45123503946797 360.5202479999997 213.77871148459198 360.22452 218.43366437484 359.63892 C 223.08861726508798 359.05332000000004 225.416093710212 359.31830399999996 230.07104660046 358.2408 C 234.725999490708 357.163296 237.053475935832 356.3171040000009 241.70842882608 354.2514 C 246.363381716324 352.18569600000086 248.690858161446 350.42596799999893 253.34581105169 347.91228 C 258.00076394193803 345.3985919999989 260.328240387062 344.26984799999997 264.98319327731 341.68296 C 269.63814616755803 339.096072 271.965622612682 337.75797600000004 276.62057550293 334.97784 C 281.27552839317804 332.19770400000004 283.603004838302 330.55070400000125 288.25795772855 327.78228 C 292.912910618794 325.0138560000012 295.24038706391605 323.8704719999988 299.89533995416 321.13572 C 304.55029284440803 318.4009679999988 306.877769289532 317.34396 311.53272217978 314.10852 C 316.18767507002804 310.87308 318.51515151515207 308.34036 323.1701044054 304.95852 C 327.825057295648 301.57668 330.152533740772 300.4186560000014 334.80748663102 297.19932 C 339.462439521264 293.9799840000014 341.78991596638605 292.1470559999986 346.44486885663 288.86184000000003 C 351.09982174687804 285.5766239999986 353.427298192002 284.512296 358.08225108225 280.77324 C 362.73720397249804 277.034184 365.064680417622 274.31699999999995 369.71963330787 270.16656 C 374.37458619811804 266.01612 376.702062643242 264.15391200000175 381.35701553349 260.02103999999997 C 386.011968423734 255.88816800000177 388.33944486885605 253.75804799999815 392.9943977591 249.50220000000002 C 397.649350649348 245.24635199999824 399.976827094472 243.33876 404.63177998472 238.7418 C 409.28673287496804 234.14484000000004 411.6142093200921 232.10988 416.26916221034 226.5174 C 420.924115100588 220.92492 423.251591545712 216.6192960000025 427.90654443596 210.7794 C 432.56149732620395 204.9395040000025 434.888973771326 203.44915199999738 439.54392666157 197.31792 C 444.19887955181804 191.18668799999736 446.526355996942 187.28366400000007 451.18130888719 180.12324 C 455.836261777438 172.96281600000006 458.163738222562 168.35121599999997 462.81869111281 161.51579999999998 C 467.473644003058 154.68038399999995 469.80112044818196 151.96905600000258 474.45607333843 145.94616 C 479.111026228674 139.92326400000258 481.43850267379605 137.09627999999756 486.09345556404 131.40132 C 490.748408454288 125.70635999999757 493.075884899412 122.96868 497.73083778966 117.47136 C 502.3857906799079 111.97404 504.71326712503196 109.00797599999999 509.36822001528 103.91471999999999 C 514.023172905528 98.82146399999999 516.350649350652 96.97243200000209 521.0056022409 92.00508000000002 C 525.6605551311441 87.03772800000209 527.988031576266 90.15897599999528 532.64298446651 79.07796000000002 C 537.297937356758 67.99694399999528 539.6254138018819 36.60000000000002 544.28036669213 36.60000000000002 C 548.935319582378 36.60000000000002 551.262796027502 45.384000000000015 555.91774891775 51.24000000000001 C 560.5727018079981 57.096000000000004 562.900178253122 60.0239999999975 567.55513114337 65.88 C 572.210084033614 71.73599999999749 574.5375604787359 74.66400000000242 579.19251336898 80.51999999999998 C 583.847466259228 86.3760000000024 586.174942704352 89.30400000000003 590.8298955946 95.15999999999997 C 595.484848484848 101.01600000000005 597.8123249299721 103.94400000000002 602.46727782022 109.80000000000001 C 607.122230710468 115.656 609.449707155592 118.58399999999752 614.10466004584 124.44 C 618.759612936084 130.2959999999975 621.0870893812059 133.22400000000243 625.74204227145 139.07999999999998 C 630.396995161698 144.93600000000242 632.724471606822 147.8640000000001 637.37942449707 153.72 C 642.034377387318 159.57600000000008 644.361853832442 162.5039999999999 649.01680672269 168.35999999999999 C 653.671759612938 174.2159999999999 655.999236058062 178.60799999999819 660.65418894831 183 C 665.3091418385541 187.39199999999818 667.6366182836761 187.39200000000125 672.29157117392 190.32 C 676.946524064168 193.24800000000124 679.2740005092921 194.71200000000007 683.92895339954 197.64 C 688.583906289788 200.56800000000007 690.9113827349121 202.032 695.56633562516 204.96 C 700.221288515408 207.88800000000003 702.548764960532 209.35199999999878 707.20371785078 212.28 C 711.8586707410241 215.20799999999878 714.1861471861461 216.67200000000125 718.84110007639 219.6 C 723.496052966638 222.52800000000124 725.8235294117619 223.992 730.47848230201 226.92 C 735.133435192258 229.84799999999998 737.460911637382 234.24 742.11586452763 234.24 C 746.7708174178781 234.24 749.098293863002 234.24 753.75324675325 234.24 C 758.408199643494 234.24 760.735676088616 238.63200000000123 765.39062897886 241.56 C 770.045581869108 244.48800000000122 772.373058314232 246.738168 777.02801120448 248.88 C 781.6829640947279 251.021832 784.010440539852 249.5783279999999 788.6653934301 252.26916 C 793.3203463203479 254.95999199999994 795.647822765472 258.3081599999983 800.30277565572 262.33416 C 804.957728545964 266.3601599999983 807.285204991086 271.03031999999996 811.94015788133 272.39916 C 816.595110771578 273.76800000000003 818.922587216702 272.39916 823.57754010695 273.76800000000003 C 828.2324929971979 275.13684000000006 830.5599694423221 273.76800000000003 835.21492233257 282.552 C 839.869875222818 291.336 842.197351667942 318.50784 846.85230455819 325.74 C 851.5072574484341 332.97216000000003 853.8347338935561 332.89896000000005 858.4896867838 332.97216000000003 C 863.1446396740481 333.04536 865.4721161191721 333.04536 870.12706900942 333.04536 C 874.7820218996679 333.04536 877.1094983447922 333.04536 881.76445123504 333.04536 C 886.419404125288 333.04536 888.746880570412 333.06 893.40183346066 333.06 C 898.0567863509041 333.06 905.03921568627 333.06 905.03921568627 333.06 L 915.03921568627 333.06"
        visibility="visible" data-z-index="2" class="highcharts-tracker-line"
        stroke-linejoin="round" stroke="rgba(192,192,192,0.0001)" stroke-width="22"></path>
    </g>
    <g data-z-index="0.1"
      class="highcharts-markers highcharts-series-1 highcharts-areaspline-series highcharts-color-1 highcharts-tracker"
      transform="translate(46,10) scale(1 1)">
      <path fill="#f8bd31" d="M 125 362 L 129 366 125 370 121 366 Z"
        class="highcharts-point highcharts-color-1"></path>
      <path fill="#f8bd31" d="M 136 362 L 140 366 136 370 132 366 Z"
        class="highcharts-point highcharts-color-1"></path>
      <path fill="#f8bd31" d="M 148 362 L 152 366 148 370 144 366 Z"
        class="highcharts-point highcharts-color-1"></path>
      <path fill="#f8bd31" d="M 160 361 L 164 365 160 369 156 365 Z"
        class="highcharts-point highcharts-color-1"></path>
      <path fill="#f8bd31" d="M 171 361 L 175 365 171 369 167 365 Z"
        class="highcharts-point highcharts-color-1"></path>
      <path fill="#f8bd31" d="M 183 361 L 187 365 183 369 179 365 Z"
        class="highcharts-point highcharts-color-1"></path>
      <path fill="#f8bd31" d="M 195 359 L 199 363 195 367 191 363 Z"
        class="highcharts-point highcharts-color-1"></path>
      <path fill="#f8bd31" d="M 206 357 L 210 361 206 365 202 361 Z"
        class="highcharts-point highcharts-color-1"></path>
      <path fill="#f8bd31" d="M 218 356 L 222 360 218 364 214 360 Z"
        class="highcharts-point highcharts-color-1"></path>
      <path fill="#f8bd31" d="M 230 354 L 234 358 230 362 226 358 Z"
        class="highcharts-point highcharts-color-1"></path>
      <path fill="#f8bd31" d="M 241 350 L 245 354 241 358 237 354 Z"
        class="highcharts-point highcharts-color-1"></path>
      <path fill="#f8bd31" d="M 253 344 L 257 348 253 352 249 348 Z"
        class="highcharts-point highcharts-color-1"></path>
      <path fill="#f8bd31" d="M 264 338 L 268 342 264 346 260 342 Z"
        class="highcharts-point highcharts-color-1"></path>
      <path fill="#f8bd31" d="M 276 331 L 280 335 276 339 272 335 Z"
        class="highcharts-point highcharts-color-1"></path>
      <path fill="#f8bd31" d="M 288 324 L 292 328 288 332 284 328 Z"
        class="highcharts-point highcharts-color-1"></path>
      <path fill="#f8bd31" d="M 299 317 L 303 321 299 325 295 321 Z"
        class="highcharts-point highcharts-color-1"></path>
      <path fill="#f8bd31" d="M 311 310 L 315 314 311 318 307 314 Z"
        class="highcharts-point highcharts-color-1"></path>
      <path fill="#f8bd31" d="M 323 301 L 327 305 323 309 319 305 Z"
        class="highcharts-point highcharts-color-1"></path>
      <path fill="#f8bd31" d="M 334 293 L 338 297 334 301 330 297 Z"
        class="highcharts-point highcharts-color-1"></path>
      <path fill="#f8bd31" d="M 346 285 L 350 289 346 293 342 289 Z"
        class="highcharts-point highcharts-color-1"></path>
      <path fill="#f8bd31" d="M 358 277 L 362 281 358 285 354 281 Z"
        class="highcharts-point highcharts-color-1"></path>
      <path fill="#f8bd31" d="M 369 266 L 373 270 369 274 365 270 Z"
        class="highcharts-point highcharts-color-1"></path>
      <path fill="#f8bd31" d="M 381 256 L 385 260 381 264 377 260 Z"
        class="highcharts-point highcharts-color-1"></path>
      <path fill="#f8bd31" d="M 392 246 L 396 250 392 254 388 250 Z"
        class="highcharts-point highcharts-color-1"></path>
      <path fill="#f8bd31" d="M 404 235 L 408 239 404 243 400 239 Z"
        class="highcharts-point highcharts-color-1"></path>
      <path fill="#f8bd31" d="M 416 223 L 420 227 416 231 412 227 Z"
        class="highcharts-point highcharts-color-1"></path>
      <path fill="#f8bd31" d="M 427 207 L 431 211 427 215 423 211 Z"
        class="highcharts-point highcharts-color-1"></path>
      <path fill="#f8bd31" d="M 439 193 L 443 197 439 201 435 197 Z"
        class="highcharts-point highcharts-color-1"></path>
      <path fill="#f8bd31" d="M 451 176 L 455 180 451 184 447 180 Z"
        class="highcharts-point highcharts-color-1"></path>
      <path fill="#f8bd31" d="M 462 158 L 466 162 462 166 458 162 Z"
        class="highcharts-point highcharts-color-1"></path>
      <path fill="#f8bd31" d="M 474 142 L 478 146 474 150 470 146 Z"
        class="highcharts-point highcharts-color-1"></path>
      <path fill="#f8bd31" d="M 486 127 L 490 131 486 135 482 131 Z"
        class="highcharts-point highcharts-color-1"></path>
      <path fill="#f8bd31" d="M 497 113 L 501 117 497 121 493 117 Z"
        class="highcharts-point highcharts-color-1"></path>
      <path fill="#f8bd31" d="M 509 100 L 513 104 509 108 505 104 Z"
        class="highcharts-point highcharts-color-1"></path>
      <path fill="#f8bd31" d="M 521 88 L 525 92 521 96 517 92 Z"
        class="highcharts-point highcharts-color-1"></path>
      <path fill="#f8bd31" d="M 532 75 L 536 79 532 83 528 79 Z"
        class="highcharts-point highcharts-color-1"></path>
      <path fill="#f8bd31" d="M 544 33 L 548 37 544 41 540 37 Z"
        class="highcharts-point highcharts-color-1"></path>
      <path fill="#f8bd31" d="M 555 47 L 559 51 555 55 551 51 Z"
        class="highcharts-point highcharts-color-1"></path>
      <path fill="#f8bd31" d="M 567 62 L 571 66 567 70 563 66 Z"
        class="highcharts-point highcharts-color-1"></path>
      <path fill="#f8bd31" d="M 579 77 L 583 81 579 85 575 81 Z"
        class="highcharts-point highcharts-color-1"></path>
      <path fill="#f8bd31" d="M 590 91 L 594 95 590 99 586 95 Z"
        class="highcharts-point highcharts-color-1"></path>
      <path fill="#f8bd31" d="M 602 106 L 606 110 602 114 598 110 Z"
        class="highcharts-point highcharts-color-1"></path>
      <path fill="#f8bd31" d="M 614 120 L 618 124 614 128 610 124 Z"
        class="highcharts-point highcharts-color-1"></path>
      <path fill="#f8bd31" d="M 625 135 L 629 139 625 143 621 139 Z"
        class="highcharts-point highcharts-color-1"></path>
      <path fill="#f8bd31" d="M 637 150 L 641 154 637 158 633 154 Z"
        class="highcharts-point highcharts-color-1"></path>
      <path fill="#f8bd31" d="M 649 164 L 653 168 649 172 645 168 Z"
        class="highcharts-point highcharts-color-1"></path>
      <path fill="#f8bd31" d="M 660 179 L 664 183 660 187 656 183 Z"
        class="highcharts-point highcharts-color-1"></path>
      <path fill="#f8bd31" d="M 672 186 L 676 190 672 194 668 190 Z"
        class="highcharts-point highcharts-color-1"></path>
      <path fill="#f8bd31" d="M 683 194 L 687 198 683 202 679 198 Z"
        class="highcharts-point highcharts-color-1"></path>
      <path fill="#f8bd31" d="M 695 201 L 699 205 695 209 691 205 Z"
        class="highcharts-point highcharts-color-1"></path>
      <path fill="#f8bd31" d="M 707 208 L 711 212 707 216 703 212 Z"
        class="highcharts-point highcharts-color-1"></path>
      <path fill="#f8bd31" d="M 718 216 L 722 220 718 224 714 220 Z"
        class="highcharts-point highcharts-color-1"></path>
      <path fill="#f8bd31" d="M 730 223 L 734 227 730 231 726 227 Z"
        class="highcharts-point highcharts-color-1"></path>
      <path fill="#f8bd31" d="M 742 230 L 746 234 742 238 738 234 Z"
        class="highcharts-point highcharts-color-1"></path>
      <path fill="#f8bd31" d="M 753 230 L 757 234 753 238 749 234 Z"
        class="highcharts-point highcharts-color-1"></path>
      <path fill="#f8bd31" d="M 765 238 L 769 242 765 246 761 242 Z"
        class="highcharts-point highcharts-color-1"></path>
      <path fill="#f8bd31" d="M 777 245 L 781 249 777 253 773 249 Z"
        class="highcharts-point highcharts-color-1"></path>
      <path fill="#f8bd31" d="M 788 248 L 792 252 788 256 784 252 Z"
        class="highcharts-point highcharts-color-1"></path>
      <path fill="#f8bd31" d="M 800 258 L 804 262 800 266 796 262 Z"
        class="highcharts-point highcharts-color-1"></path>
      <path fill="#f8bd31" d="M 811 268 L 815 272 811 276 807 272 Z"
        class="highcharts-point highcharts-color-1"></path>
      <path fill="#f8bd31" d="M 823 270 L 827 274 823 278 819 274 Z"
        class="highcharts-point highcharts-color-1"></path>
      <path fill="#f8bd31" d="M 835 279 L 839 283 835 287 831 283 Z"
        class="highcharts-point highcharts-color-1"></path>
      <path fill="#f8bd31" d="M 846 322 L 850 326 846 330 842 326 Z"
        class="highcharts-point highcharts-color-1"></path>
      <path fill="#f8bd31" d="M 858 329 L 862 333 858 337 854 333 Z"
        class="highcharts-point highcharts-color-1"></path>
      <path fill="#f8bd31" d="M 870 329 L 874 333 870 337 866 333 Z"
        class="highcharts-point highcharts-color-1"></path>
      <path fill="#f8bd31" d="M 881 329 L 885 333 881 337 877 333 Z"
        class="highcharts-point highcharts-color-1"></path>
      <path fill="#f8bd31" d="M 893 329 L 897 333 893 337 889 333 Z"
        class="highcharts-point highcharts-color-1"></path>
      <path fill="#f8bd31" d="M 905 329 L 909 333 905 337 901 333 Z"
        class="highcharts-point highcharts-color-1"></path>
    </g>
  </g>
  <g class="highcharts-exporting-group" data-z-index="3">
    <g class="highcharts-button highcharts-contextbutton" stroke-linecap="round"
      transform="translate(936,10)">
      <title>Chart context menu</title>
      <rect fill="#ffffff" class=" highcharts-button-box" x="0.5" y="0.5" width="24" height="22"
        rx="2" ry="2" stroke="none" stroke-width="1"></rect>
      <path fill="#666666" d="M 6 6.5 L 20 6.5 M 6 11.5 L 20 11.5 M 6 16.5 L 20 16.5"
        class="highcharts-button-symbol" data-z-index="1" stroke="#666666" stroke-width="3"></path>
      <text x="0" data-z-index="1"
        style="font-weight:normal;color:#333333;cursor:pointer;fill:#333333;" y="12"></text>
    </g>
  </g><text x="485" text-anchor="middle" class="highcharts-title" data-z-index="4"
    style="color:#333333;font-size:18px;fill:#333333;" y="24"></text><text x="485"
    text-anchor="middle" class="highcharts-subtitle" data-z-index="4"
    style="color:#666666;fill:#666666;" y="24"></text>
  <g class="highcharts-legend" data-z-index="7" transform="translate(396,409)">
    <rect fill="none" class="highcharts-legend-box" rx="0" ry="0" x="0" y="0" width="178"
      height="26" visibility="visible"></rect>
    <g data-z-index="1">
      <g>
        <g class="highcharts-legend-item highcharts-areaspline-series highcharts-color-0 highcharts-series-0"
          data-z-index="1" transform="translate(8,3)"><text x="21"
            style="color:#333333;cursor:pointer;font-size:12px;font-weight:bold;fill:#333333;"
            text-anchor="start" data-z-index="2" y="15">
            <tspan>Series 1</tspan>
          </text>
          <rect x="2" y="4" width="12" height="12" fill="#00469e" rx="6" ry="6"
            class="highcharts-point" data-z-index="3">
          </rect>
        </g>
        <g class="highcharts-legend-item highcharts-areaspline-series highcharts-color-1 highcharts-series-1"
          data-z-index="1" transform="translate(99.328125,3)"><text x="21" y="15"
            style="color:#333333;cursor:pointer;font-size:12px;font-weight:bold;fill:#333333;"
            text-anchor="start" data-z-index="2">
            <tspan>Series 2</tspan>
          </text>
          <rect x="2" y="4" width="12" height="12" fill="#f8bd31" rx="6" ry="6"
            class="highcharts-point" data-z-index="3">
          </rect>
        </g>
      </g>
    </g>
  </g>
  <g class="highcharts-axis-labels highcharts-xaxis-labels " data-z-index="7">
    <text x="54.960784313725" style="color:#666666;cursor:default;font-size:11px;fill:#666666;"
      text-anchor="middle" transform="translate(0,0)" y="395" opacity="1">0</text><text
      x="171.3346065699" style="color:#666666;cursor:default;font-size:11px;fill:#666666;"
      text-anchor="middle" transform="translate(0,0)" y="395" opacity="1">10</text><text
      x="287.70842882608" style="color:#666666;cursor:default;font-size:11px;fill:#666666;"
      text-anchor="middle" transform="translate(0,0)" y="395" opacity="1">20</text><text
      x="404.08225108225" style="color:#666666;cursor:default;font-size:11px;fill:#666666;"
      text-anchor="middle" transform="translate(0,0)" y="395" opacity="1">30</text><text
      x="520.45607333843" style="color:#666666;cursor:default;font-size:11px;fill:#666666;"
      text-anchor="middle" transform="translate(0,0)" y="395" opacity="1">40</text><text
      x="636.8298955946" style="color:#666666;cursor:default;font-size:11px;fill:#666666;"
      text-anchor="middle" transform="translate(0,0)" y="395" opacity="1">50</text><text
      x="753.20371785078" style="color:#666666;cursor:default;font-size:11px;fill:#666666;"
      text-anchor="middle" transform="translate(0,0)" y="395" opacity="1">60</text><text
      x="869.57754010695" style="color:#666666;cursor:default;font-size:11px;fill:#666666;"
      text-anchor="middle" transform="translate(0,0)" y="395" opacity="1">70</text></g>
  <g class="highcharts-axis-labels highcharts-yaxis-labels " data-z-index="7">
    <text x="31" style="color:#666666;cursor:default;font-size:11px;fill:#666666;" text-anchor="end"
      transform="translate(0,0)" y="381" opacity="1">0</text><text x="31"
      style="color:#666666;cursor:default;font-size:11px;fill:#666666;" text-anchor="end"
      transform="translate(0,0)" y="307" opacity="1">10k</text><text x="31"
      style="color:#666666;cursor:default;font-size:11px;fill:#666666;" text-anchor="end"
      transform="translate(0,0)" y="234" opacity="1">20k</text><text x="31"
      style="color:#666666;cursor:default;font-size:11px;fill:#666666;" text-anchor="end"
      transform="translate(0,0)" y="161" opacity="1">30k</text><text x="31"
      style="color:#666666;cursor:default;font-size:11px;fill:#666666;" text-anchor="end"
      transform="translate(0,0)" y="88" opacity="1">40k</text><text x="31"
      style="color:#666666;cursor:default;font-size:11px;fill:#666666;" text-anchor="end"
      transform="translate(0,0)" y="15" opacity="1">50k</text></g>
</svg>